<svg width="89" height="24" viewBox="0 0 89 24" fill="none" xmlns="http://www.w3.org/2000/svg">
<path d="M88.0607 13.0607C88.6464 12.4749 88.6464 11.5251 88.0607 10.9393L78.5147 1.39341C77.9289 0.807619 76.9792 0.807619 76.3934 1.3934C75.8076 1.97919 75.8076 2.92894 76.3934 3.51473L84.8787 12L76.3934 20.4853C75.8076 21.0711 75.8076 22.0208 76.3934 22.6066C76.9792 23.1924 77.9289 23.1924 78.5147 22.6066L88.0607 13.0607ZM39 13.5L45.1488 13.5L45.1488 10.5L39 10.5L39 13.5ZM45.1488 13.5L87 13.5L87 10.5L45.1488 10.5L45.1488 13.5ZM32.5 10.5L20 10.5L20 13.5L32.5 13.5L32.5 10.5ZM12.5 10.5L0 10.5L0 13.5L12.5 13.5V10.5Z" fill="white"/>
</svg>
